####
#
# OBJ File Generated by Meshlab
#
####
# Object LF_upper.obj
#
# Vertices: 175
# Faces: 354
#
####
vn -1.370450 -2.817869 -2.997581
v -0.007431 -0.018568 0.008000
vn -1.484102 -2.724981 -3.455752
v -0.008609 -0.015808 0.008000
vn -0.569399 -3.050223 -3.455750
v -0.003303 -0.017694 0.008000
vn -2.802053 1.164886 -3.665195
v 0.143125 -0.059501 0.008000
vn 2.362744 -2.012355 -2.830101
v 0.152211 -0.069253 0.008000
vn -1.844205 2.409851 -3.665190
v 0.141546 -0.061552 0.008000
vn 1.632294 -2.639648 -2.830098
v 0.147975 -0.072891 0.008000
vn -0.392202 3.009093 -3.665194
v 0.139154 -0.062539 0.008000
vn 1.844208 -2.409845 -3.665201
v 0.135469 -0.053611 0.008000
vn 1.031123 2.958938 -2.997582
v 0.007923 0.018364 0.008000
vn 0.392204 -3.009094 -3.665190
v 0.137861 -0.052623 0.008000
vn 1.460742 2.770580 -2.985848
v 0.145638 -0.041054 0.008000
vn -1.164885 -2.802055 -3.665191
v 0.140427 -0.052964 0.008000
vn 2.043679 2.335702 -2.830099
v 0.150361 -0.044035 0.008000
vn -2.409848 -1.844205 -3.665195
v 0.142478 -0.054543 0.008000
vn 2.661179 1.596952 -2.830099
v 0.153942 -0.048319 0.008000
vn -3.009095 -0.392205 -3.665187
v 0.143466 -0.056935 0.008000
vn -2.253531 -2.132997 -3.455752
v -0.013073 -0.012374 0.008000
vn -0.933915 -2.989595 -2.985846
v 0.131820 -0.074293 0.008000
vn 3.009094 0.392197 -3.665199
v 0.133550 -0.058228 0.008000
vn 2.802056 -1.164889 -3.665187
v 0.133891 -0.055662 0.008000
vn 0.401040 -3.076889 -3.455752
v 0.002326 -0.017849 0.008000
vn 1.332223 -2.802367 -3.455752
v 0.007728 -0.016257 0.008000
vn 2.409847 1.844206 -3.665196
v 0.134537 -0.060620 0.008000
vn 1.164888 2.802056 -3.665187
v 0.136588 -0.062198 0.008000
vn -0.214482 -3.096147 -2.830100
v 0.137264 -0.075538 0.008000
vn 0.744744 -3.012887 -2.830101
v 0.142827 -0.075055 0.008000
vn 3.022549 0.704503 -2.830100
v 0.156038 -0.053495 0.008000
vn 3.093012 -0.255749 -2.830101
v 0.156446 -0.059065 0.008000
vn 2.865787 -1.191384 -2.830101
v 0.155129 -0.064491 0.008000
vn 2.132997 -2.253532 -3.455750
v 0.012374 -0.013073 0.008000
vn 2.724980 -1.484102 -3.455755
v 0.015808 -0.008609 0.008000
vn 3.050224 -0.569398 -3.455750
v 0.017694 -0.003303 0.008000
vn 3.076889 0.401040 -3.455752
v 0.017849 0.002326 0.008000
vn -1.927471 -2.439505 -2.853570
v -0.012399 -0.015693 0.008000
vn -2.541033 -1.791501 -2.853568
v -0.016346 -0.011524 0.008000
vn -2.802367 -1.332222 -3.455751
v -0.016257 -0.007728 0.008000
vn -2.945251 -0.995901 -2.853568
v -0.018946 -0.006406 0.008000
vn -3.076889 -0.401040 -3.455753
v -0.017849 -0.002326 0.008000
vn -3.106822 -0.118257 -2.853571
v -0.019986 -0.000761 0.008000
vn -3.050224 0.569398 -3.455750
v -0.017694 0.003303 0.008000
vn -3.012435 0.769129 -2.853568
v -0.019378 0.004948 0.008000
vn -2.724982 1.484099 -3.455753
v -0.015808 0.008609 0.008000
vn -2.669866 1.593155 -2.853567
v -0.017175 0.010248 0.008000
vn -2.132996 2.253531 -3.455755
v -0.012374 0.013073 0.008000
vn -2.107339 2.285924 -2.853571
v -0.013556 0.014705 0.008000
vn -1.332220 2.802369 -3.455750
v -0.007728 0.016257 0.008000
vn -1.371199 2.790365 -2.853568
v -0.008821 0.017950 0.008000
vn -0.401041 3.076889 -3.455752
v -0.002326 0.017849 0.008000
vn -0.522088 3.064922 -2.853568
v -0.003358 0.019716 0.008000
vn 0.569399 3.050223 -3.455752
v 0.003303 0.017694 0.008000
vn 0.370034 3.086973 -2.853570
v 0.002380 0.019858 0.008000
vn 1.484102 2.724981 -3.455752
v 0.008609 0.015808 0.008000
vn 2.253531 2.132997 -3.455752
v 0.013073 0.012374 0.008000
vn 2.802367 1.332222 -3.455751
v 0.016257 0.007728 0.008000
vn 2.975206 -0.801318 -2.748891
v -0.010622 0.002861 0.008000
vn 2.442077 -1.878888 -2.748892
v -0.008718 0.006708 0.008000
vn 2.112396 -2.231759 -3.560473
v -0.006874 0.007263 0.008000
vn 1.537166 -2.670410 -2.748895
v -0.005488 0.009533 0.008000
vn 1.022026 -2.898004 -3.560473
v -0.003326 0.009431 0.008000
vn 0.398237 -3.055385 -2.748894
v -0.001422 0.010908 0.008000
vn -0.245057 -3.063155 -3.560470
v 0.000797 0.009968 0.008000
vn -0.801321 -2.975206 -2.748893
v 0.002861 0.010622 0.008000
vn -1.469765 -2.698659 -3.560472
v 0.004783 0.008782 0.008000
vn -1.878886 -2.442080 -2.748894
v 0.006708 0.008718 0.008000
vn -2.440340 -1.867541 -3.560472
v 0.007941 0.006077 0.008000
vn -2.670408 -1.537166 -2.748892
v 0.009533 0.005488 0.008000
vn -2.988959 -0.713503 -3.560474
v 0.009727 0.002322 0.008000
vn -3.055385 -0.398238 -2.748897
v 0.010908 0.001422 0.008000
vn -3.075844 0.408985 -3.455749
v 0.009830 -0.001835 0.008000
vn -3.054079 0.611597 -2.879787
v 0.010622 -0.002861 0.008000
vn -2.885007 1.199374 -3.351034
v 0.009234 -0.003839 0.008000
vn -2.845636 1.294532 -2.933034
v 0.010157 -0.004223 0.008000
vn -2.459269 1.892110 -3.455749
v 0.008234 -0.005675 0.008000
vn -2.393507 1.969478 -2.814348
v 0.008718 -0.006708 0.008000
vn -1.602225 2.622182 -3.560474
v 0.005214 -0.008533 0.008000
vn -1.537169 2.670407 -2.748891
v 0.005488 -0.009533 0.008000
vn -0.397165 3.047167 -3.560472
v 0.001292 -0.009916 0.008000
vn -0.398237 3.055385 -2.748895
v 0.001422 -0.010908 0.008000
vn 0.876567 2.945268 -3.560471
v -0.002853 -0.009585 0.008000
vn 0.801321 2.975206 -2.748893
v -0.002861 -0.010622 0.008000
vn 1.998730 2.334106 -3.560470
v -0.006504 -0.007596 0.008000
vn 1.878886 2.442080 -2.748894
v -0.006708 -0.008718 0.008000
vn 2.775296 1.319355 -3.560474
v -0.009031 -0.004293 0.008000
vn 2.670408 1.537166 -2.748892
v -0.009533 -0.005488 0.008000
vn 3.071989 0.076471 -3.560473
v -0.009997 -0.000249 0.008000
vn 3.055385 0.398238 -2.748897
v -0.010908 -0.001422 0.008000
vn 2.837508 -1.179628 -3.560467
v -0.009234 0.003839 0.008000
vn 1.460742 2.770581 2.985849
v 0.145638 -0.041054 0.023000
vn 1.031123 2.958937 2.997582
v 0.007923 0.018364 0.023000
vn 1.844208 -2.409845 3.665197
v 0.135469 -0.053611 0.023000
vn -2.409848 -1.844205 3.665194
v 0.142478 -0.054543 0.023000
vn -3.009095 -0.392206 3.665187
v 0.143466 -0.056935 0.023000
vn 3.022549 0.704503 2.830100
v 0.156038 -0.053495 0.023000
vn -1.469765 -2.698659 3.560471
v 0.004783 0.008782 0.023000
vn -2.440341 -1.867541 3.560472
v 0.007941 0.006077 0.023000
vn 2.802056 -1.164889 3.665184
v 0.133891 -0.055662 0.023000
vn -2.988959 -0.713503 3.560474
v 0.009727 0.002322 0.023000
vn 3.093012 -0.255749 2.830101
v 0.156446 -0.059065 0.023000
vn -2.802053 1.164886 3.665195
v 0.143125 -0.059501 0.023000
vn 2.865787 -1.191384 2.830101
v 0.155129 -0.064491 0.023000
vn 2.112396 -2.231759 3.560473
v -0.006874 0.007263 0.023000
vn -2.669866 1.593155 2.853567
v -0.017175 0.010248 0.023000
vn 2.837509 -1.179628 3.560467
v -0.009234 0.003839 0.023000
vn -3.012435 0.769129 2.853568
v -0.019378 0.004948 0.023000
vn 3.071989 0.076471 3.560474
v -0.009997 -0.000249 0.023000
vn -3.106822 -0.118257 2.853571
v -0.019986 -0.000761 0.023000
vn 2.775296 1.319355 3.560473
v -0.009031 -0.004293 0.023000
vn -0.245057 -3.063155 3.560470
v 0.000797 0.009968 0.023000
vn -0.522087 3.064922 2.853569
v -0.003358 0.019716 0.023000
vn 1.022026 -2.898004 3.560473
v -0.003326 0.009431 0.023000
vn -1.371199 2.790365 2.853568
v -0.008821 0.017950 0.023000
vn -2.107339 2.285924 2.853571
v -0.013556 0.014705 0.023000
vn 0.392204 -3.009094 3.665190
v 0.137861 -0.052623 0.023000
vn -1.164885 -2.802055 3.665191
v 0.140427 -0.052964 0.023000
vn 2.043679 2.335702 2.830099
v 0.150361 -0.044035 0.023000
vn 2.661179 1.596952 2.830099
v 0.153942 -0.048319 0.023000
vn 2.362743 -2.012355 2.830101
v 0.152211 -0.069253 0.023000
vn -1.844205 2.409851 3.665190
v 0.141546 -0.061552 0.023000
vn 1.632294 -2.639648 2.830099
v 0.147975 -0.072891 0.023000
vn 0.744744 -3.012887 2.830101
v 0.142827 -0.075055 0.023000
vn -0.392202 3.009093 3.665194
v 0.139154 -0.062539 0.023000
vn -0.214482 -3.096147 2.830100
v 0.137264 -0.075538 0.023000
vn 1.164888 2.802056 3.665187
v 0.136588 -0.062198 0.023000
vn -0.933915 -2.989595 2.985846
v 0.131820 -0.074293 0.023000
vn 2.409847 1.844206 3.665196
v 0.134537 -0.060620 0.023000
vn -1.370451 -2.817870 2.997591
v -0.007431 -0.018568 0.023000
vn 3.009094 0.392197 3.665193
v 0.133550 -0.058228 0.023000
vn -1.602225 2.622182 3.560474
v 0.005214 -0.008533 0.023000
vn 0.370034 3.086973 2.853570
v 0.002380 0.019858 0.023000
vn -0.397165 3.047168 3.560472
v 0.001292 -0.009916 0.023000
vn 0.876567 2.945267 3.560472
v -0.002853 -0.009585 0.023000
vn -1.927471 -2.439505 2.853570
v -0.012399 -0.015693 0.023000
vn 1.998730 2.334106 3.560470
v -0.006504 -0.007596 0.023000
vn -2.541033 -1.791501 2.853569
v -0.016346 -0.011524 0.023000
vn -2.945251 -0.995901 2.853568
v -0.018946 -0.006406 0.023000
vn -3.075844 0.408985 3.455749
v 0.009830 -0.001835 0.023000
vn -2.885007 1.199374 3.351035
v 0.009234 -0.003839 0.023000
vn -2.459269 1.892110 3.455749
v 0.008234 -0.005675 0.023000
vn -0.801321 -2.975206 -3.534292
v 0.002861 0.010622 -0.000000
vn 1.484102 2.724980 -2.827433
v 0.008609 0.015808 -0.000000
vn -1.878886 -2.442080 -3.534292
v 0.006708 0.008718 -0.000000
vn 2.253531 2.132997 -2.827433
v 0.013073 0.012374 -0.000000
vn -2.670408 -1.537166 -3.534294
v 0.009533 0.005488 -0.000000
vn 2.802368 1.332222 -2.827434
v 0.016257 0.007728 -0.000000
vn -3.055385 -0.398238 -3.534288
v 0.010908 0.001422 -0.000000
vn 3.076889 0.401040 -2.827434
v 0.017849 0.002326 -0.000000
vn -2.985175 0.780341 -3.501572
v 0.010622 -0.002861 -0.000000
vn 3.050224 -0.569398 -2.827435
v 0.017694 -0.003303 -0.000000
vn -2.431808 1.898955 -3.505491
v 0.008718 -0.006708 -0.000000
vn 2.724980 -1.484102 -2.827430
v 0.015808 -0.008609 -0.000000
vn 2.132997 -2.253532 -2.827436
v 0.012374 -0.013073 -0.000000
vn -1.537169 2.670406 -3.534294
v 0.005488 -0.009533 -0.000000
vn 1.332223 -2.802367 -2.827433
v 0.007728 -0.016257 -0.000000
vn -0.398237 3.055385 -3.534291
v 0.001422 -0.010908 -0.000000
vn 0.401040 -3.076889 -2.827433
v 0.002326 -0.017849 -0.000000
vn 0.801321 2.975206 -3.534292
v -0.002861 -0.010622 -0.000000
vn 2.442078 -1.878888 -3.534294
v -0.008718 0.006708 -0.000000
vn -2.132996 2.253531 -2.827431
v -0.012374 0.013073 -0.000000
vn 1.537165 -2.670410 -3.534291
v -0.005488 0.009533 -0.000000
vn -1.332220 2.802369 -2.827436
v -0.007728 0.016257 -0.000000
vn 0.398237 -3.055385 -3.534291
v -0.001422 0.010908 -0.000000
vn -0.401041 3.076889 -2.827434
v -0.002326 0.017849 -0.000000
vn 0.569399 3.050223 -2.827433
v 0.003303 0.017694 -0.000000
vn -0.569399 -3.050223 -2.827434
v -0.003303 -0.017694 -0.000000
vn -1.484102 -2.724980 -2.827433
v -0.008609 -0.015808 -0.000000
vn 1.878886 2.442080 -3.534291
v -0.006708 -0.008718 -0.000000
vn -2.253531 -2.132997 -2.827433
v -0.013073 -0.012374 -0.000000
vn 2.670408 1.537166 -3.534294
v -0.009533 -0.005488 -0.000000
vn -2.802368 -1.332222 -2.827434
v -0.016257 -0.007728 -0.000000
vn 3.055385 0.398238 -3.534288
v -0.010908 -0.001422 -0.000000
vn -3.076889 -0.401040 -2.827433
v -0.017849 -0.002326 -0.000000
vn 2.975206 -0.801318 -3.534294
v -0.010622 0.002861 -0.000000
vn -3.050224 0.569398 -2.827435
v -0.017694 0.003303 -0.000000
vn -2.724982 1.484099 -2.827432
v -0.015808 0.008609 -0.000000
# 175 vertices, 0 vertices normals

f 1//1 2//2 3//3
f 4//4 5//5 6//6
f 6//6 5//5 7//7
f 6//6 7//7 8//8
f 9//9 10//10 11//11
f 11//11 10//10 12//12
f 11//11 12//12 13//13
f 13//13 12//12 14//14
f 13//13 14//14 15//15
f 15//15 14//14 16//16
f 15//15 16//16 17//17
f 2//2 1//1 18//18
f 19//19 1//1 20//20
f 20//20 1//1 3//3
f 20//20 3//3 21//21
f 21//21 3//3 22//22
f 21//21 22//22 23//23
f 20//20 24//24 19//19
f 19//19 24//24 25//25
f 19//19 25//25 26//26
f 26//26 25//25 8//8
f 26//26 8//8 27//27
f 27//27 8//8 7//7
f 16//16 28//28 17//17
f 17//17 28//28 29//29
f 17//17 29//29 4//4
f 4//4 29//29 30//30
f 4//4 30//30 5//5
f 23//23 31//31 21//21
f 21//21 31//31 32//32
f 21//21 32//32 9//9
f 9//9 32//32 33//33
f 9//9 33//33 34//34
f 1//1 35//35 18//18
f 18//18 35//35 36//36
f 18//18 36//36 37//37
f 37//37 36//36 38//38
f 37//37 38//38 39//39
f 39//39 38//38 40//40
f 39//39 40//40 41//41
f 41//41 40//40 42//42
f 41//41 42//42 43//43
f 43//43 42//42 44//44
f 43//43 44//44 45//45
f 45//45 44//44 46//46
f 45//45 46//46 47//47
f 47//47 46//46 48//48
f 47//47 48//48 49//49
f 49//49 48//48 50//50
f 49//49 50//50 51//51
f 51//51 50//50 52//52
f 51//51 52//52 53//53
f 53//53 52//52 10//10
f 53//53 10//10 54//54
f 54//54 10//10 9//9
f 54//54 9//9 55//55
f 55//55 9//9 34//34
f 56//56 57//57 58//58
f 58//58 57//57 59//59
f 58//58 59//59 60//60
f 60//60 59//59 61//61
f 60//60 61//61 62//62
f 62//62 61//61 63//63
f 62//62 63//63 64//64
f 64//64 63//63 65//65
f 64//64 65//65 66//66
f 66//66 65//65 67//67
f 66//66 67//67 68//68
f 68//68 67//67 69//69
f 68//68 69//69 70//70
f 70//70 69//69 71//71
f 70//70 71//71 72//72
f 72//72 71//71 73//73
f 72//72 73//73 74//74
f 74//74 73//73 75//75
f 74//74 75//75 76//76
f 76//76 75//75 77//77
f 76//76 77//77 78//78
f 78//78 77//77 79//79
f 78//78 79//79 80//80
f 80//80 79//79 81//81
f 80//80 81//81 82//82
f 82//82 81//81 83//83
f 82//82 83//83 84//84
f 84//84 83//83 85//85
f 84//84 85//85 86//86
f 86//86 85//85 87//87
f 86//86 87//87 88//88
f 88//88 87//87 56//56
f 88//88 56//56 58//58
f 89//89 90//90 91//91
f 92//92 93//93 94//94
f 95//95 96//96 97//97
f 97//97 96//96 98//98
f 94//94 93//93 99//99
f 99//99 93//93 100//100
f 99//99 100//100 101//101
f 102//102 103//103 104//104
f 104//104 103//103 105//105
f 104//104 105//105 106//106
f 106//106 105//105 107//107
f 106//106 107//107 108//108
f 109//109 110//110 111//111
f 111//111 110//110 112//112
f 111//111 112//112 102//102
f 102//102 112//112 113//113
f 102//102 113//113 103//103
f 91//91 114//114 89//89
f 89//89 114//114 115//115
f 89//89 115//115 116//116
f 116//116 115//115 92//92
f 116//116 92//92 117//117
f 117//117 92//92 94//94
f 101//101 100//100 118//118
f 118//118 100//100 119//119
f 118//118 119//119 120//120
f 120//120 119//119 121//121
f 121//121 119//119 122//122
f 121//121 122//122 123//123
f 123//123 122//122 124//124
f 123//123 124//124 125//125
f 125//125 124//124 126//126
f 125//125 126//126 127//127
f 127//127 126//126 128//128
f 127//127 128//128 129//129
f 97//97 91//91 95//95
f 95//95 91//91 90//90
f 95//95 90//90 109//109
f 109//109 90//90 130//130
f 109//109 130//130 110//110
f 129//129 131//131 127//127
f 127//127 131//131 132//132
f 127//127 132//132 133//133
f 133//133 132//132 134//134
f 133//133 134//134 135//135
f 135//135 134//134 108//108
f 135//135 108//108 136//136
f 136//136 108//108 107//107
f 98//98 137//137 97//97
f 97//97 137//137 138//138
f 97//97 138//138 128//128
f 128//128 138//138 139//139
f 128//128 139//139 129//129
f 12//12 89//89 116//116
f 12//12 116//116 14//14
f 14//14 116//116 117//117
f 14//14 117//117 16//16
f 16//16 117//117 94//94
f 16//16 94//94 28//28
f 28//28 94//94 99//99
f 28//28 99//99 29//29
f 29//29 99//99 101//101
f 29//29 101//101 30//30
f 30//30 101//101 118//118
f 30//30 118//118 5//5
f 5//5 118//118 120//120
f 5//5 120//120 7//7
f 7//7 120//120 121//121
f 7//7 121//121 27//27
f 27//27 121//121 123//123
f 27//27 123//123 26//26
f 26//26 123//123 125//125
f 26//26 125//125 19//19
f 1//1 19//19 127//127
f 127//127 19//19 125//125
f 1//1 127//127 133//133
f 1//1 133//133 35//35
f 35//35 133//133 135//135
f 35//35 135//135 36//36
f 36//36 135//135 136//136
f 36//36 136//136 38//38
f 38//38 136//136 107//107
f 38//38 107//107 40//40
f 40//40 107//107 105//105
f 40//40 105//105 42//42
f 42//42 105//105 103//103
f 42//42 103//103 44//44
f 44//44 103//103 113//113
f 44//44 113//113 46//46
f 46//46 113//113 112//112
f 46//46 112//112 48//48
f 48//48 112//112 110//110
f 48//48 110//110 50//50
f 50//50 110//110 130//130
f 50//50 130//130 52//52
f 52//52 130//130 90//90
f 52//52 90//90 10//10
f 12//12 10//10 89//89
f 89//89 10//10 90//90
f 21//21 97//97 20//20
f 20//20 97//97 128//128
f 20//20 128//128 24//24
f 24//24 128//128 126//126
f 24//24 126//126 25//25
f 25//25 126//126 124//124
f 25//25 124//124 8//8
f 8//8 124//124 122//122
f 8//8 122//122 6//6
f 6//6 122//122 119//119
f 6//6 119//119 4//4
f 4//4 119//119 100//100
f 4//4 100//100 17//17
f 17//17 100//100 93//93
f 17//17 93//93 15//15
f 15//15 93//93 92//92
f 15//15 92//92 13//13
f 13//13 92//92 115//115
f 13//13 115//115 11//11
f 11//11 115//115 114//114
f 11//11 114//114 9//9
f 9//9 114//114 91//91
f 9//9 91//91 21//21
f 21//21 91//91 97//97
f 88//88 104//104 86//86
f 86//86 104//104 106//106
f 86//86 106//106 84//84
f 84//84 106//106 108//108
f 84//84 108//108 82//82
f 82//82 108//108 134//134
f 82//82 134//134 80//80
f 80//80 134//134 132//132
f 80//80 132//132 78//78
f 78//78 132//132 131//131
f 78//78 131//131 76//76
f 76//76 131//131 129//129
f 76//76 129//129 74//74
f 74//74 129//129 139//139
f 74//74 139//139 72//72
f 72//72 139//139 138//138
f 72//72 138//138 70//70
f 70//70 138//138 137//137
f 70//70 137//137 68//68
f 68//68 137//137 98//98
f 68//68 98//98 66//66
f 66//66 98//98 96//96
f 66//66 96//96 64//64
f 64//64 96//96 95//95
f 64//64 95//95 62//62
f 62//62 95//95 109//109
f 62//62 109//109 60//60
f 60//60 109//109 111//111
f 60//60 111//111 58//58
f 58//58 111//111 102//102
f 58//58 102//102 88//88
f 88//88 102//102 104//104
f 140//140 141//141 142//142
f 142//142 141//141 143//143
f 142//142 143//143 144//144
f 144//144 143//143 145//145
f 144//144 145//145 146//146
f 146//146 145//145 147//147
f 146//146 147//147 148//148
f 148//148 147//147 149//149
f 148//148 149//149 150//150
f 149//149 151//151 150//150
f 150//150 151//151 152//152
f 150//150 152//152 153//153
f 153//153 152//152 154//154
f 153//153 154//154 155//155
f 155//155 154//154 156//156
f 155//155 156//156 157//157
f 158//158 159//159 160//160
f 160//160 159//159 161//161
f 160//160 161//161 162//162
f 162//162 161//161 163//163
f 162//162 163//163 140//140
f 140//140 163//163 164//164
f 140//140 164//164 141//141
f 156//156 165//165 157//157
f 157//157 165//165 166//166
f 157//157 166//166 167//167
f 167//167 166//166 168//168
f 167//167 168//168 169//169
f 169//169 168//168 170//170
f 169//169 170//170 171//171
f 171//171 170//170 172//172
f 171//171 172//172 173//173
f 173//173 172//172 174//174
f 173//173 174//174 158//158
f 158//158 174//174 175//175
f 158//158 175//175 159//159
f 49//49 161//161 47//47
f 47//47 161//161 159//159
f 47//47 159//159 45//45
f 45//45 159//159 175//175
f 45//45 175//175 43//43
f 43//43 175//175 174//174
f 43//43 174//174 41//41
f 41//41 174//174 172//172
f 41//41 172//172 39//39
f 39//39 172//172 170//170
f 39//39 170//170 37//37
f 37//37 170//170 168//168
f 37//37 168//168 18//18
f 18//18 168//168 166//166
f 18//18 166//166 2//2
f 2//2 166//166 165//165
f 2//2 165//165 3//3
f 3//3 165//165 156//156
f 3//3 156//156 22//22
f 22//22 156//156 154//154
f 22//22 154//154 23//23
f 23//23 154//154 152//152
f 23//23 152//152 31//31
f 31//31 152//152 151//151
f 31//31 151//151 32//32
f 32//32 151//151 149//149
f 32//32 149//149 33//33
f 33//33 149//149 147//147
f 33//33 147//147 34//34
f 34//34 147//147 145//145
f 34//34 145//145 55//55
f 55//55 145//145 143//143
f 55//55 143//143 54//54
f 54//54 143//143 141//141
f 54//54 141//141 53//53
f 53//53 141//141 164//164
f 53//53 164//164 51//51
f 51//51 164//164 163//163
f 51//51 163//163 49//49
f 49//49 163//163 161//161
f 77//77 75//75 150//150
f 150//150 75//75 73//73
f 150//150 73//73 148//148
f 148//148 73//73 71//71
f 148//148 71//71 146//146
f 146//146 71//71 69//69
f 146//146 69//69 144//144
f 144//144 69//69 67//67
f 144//144 67//67 142//142
f 142//142 67//67 65//65
f 142//142 65//65 140//140
f 140//140 65//65 63//63
f 140//140 63//63 162//162
f 162//162 63//63 61//61
f 162//162 61//61 160//160
f 160//160 61//61 59//59
f 160//160 59//59 158//158
f 158//158 59//59 57//57
f 158//158 57//57 173//173
f 173//173 57//57 56//56
f 173//173 56//56 171//171
f 171//171 56//56 87//87
f 171//171 87//87 169//169
f 169//169 87//87 85//85
f 169//169 85//85 167//167
f 167//167 85//85 83//83
f 167//167 83//83 157//157
f 157//157 83//83 81//81
f 157//157 81//81 155//155
f 155//155 81//81 79//79
f 155//155 79//79 153//153
f 153//153 79//79 77//77
f 153//153 77//77 150//150
# 354 faces, 0 coords texture

# End of File
