####
#
# OBJ File Generated by Meshlab
#
####
# Object RB_upper.obj
#
# Vertices: 207
# Faces: 354
#
####
vn 1.370451 2.817868 -2.997580
v 0.145838 -0.039255 -0.015000
vn 1.484102 2.724981 -3.455751
v 0.147016 -0.042015 -0.015000
vn 0.569400 3.050223 -3.455751
v 0.141710 -0.040129 -0.015000
vn 2.802053 -1.164889 -3.665192
v -0.004718 0.001678 -0.015000
vn -2.362742 2.012357 -2.830100
v -0.013804 0.011430 -0.015000
vn 1.844205 -2.409850 -3.665192
v -0.003139 0.003729 -0.015000
vn -1.632293 2.639649 -2.830101
v -0.009568 0.015068 -0.015000
vn 0.392203 -3.009094 -3.665192
v -0.000747 0.004716 -0.015000
vn -1.844205 2.409850 -3.665188
v 0.002938 -0.004212 -0.015000
vn -1.031123 -2.958938 -2.997572
v 0.130484 -0.076187 -0.015000
vn -0.392203 3.009094 -3.665192
v 0.000546 -0.005200 -0.015000
vn -1.460744 -2.770578 -2.985846
v -0.007231 -0.016769 -0.015000
vn 1.164889 2.802053 -3.665191
v -0.002020 -0.004859 -0.015000
vn -2.043681 -2.335701 -2.830100
v -0.011954 -0.013788 -0.015000
vn 2.409850 1.844205 -3.665191
v -0.004071 -0.003280 -0.015000
vn -2.661178 -1.596953 -2.830100
v -0.015535 -0.009504 -0.015000
vn 3.009094 0.392204 -3.665192
v -0.005059 -0.000888 -0.015000
vn 2.253531 2.132997 -3.455752
v 0.151480 -0.045450 -0.015000
vn 0.933915 2.989595 -2.985846
v 0.006587 0.016470 -0.015000
vn -3.009094 -0.392203 -3.665189
v 0.004857 0.000405 -0.015000
vn -2.802053 1.164889 -3.665190
v 0.004516 -0.002161 -0.015000
vn -0.401041 3.076889 -3.455752
v 0.136081 -0.039974 -0.015000
vn -1.332222 2.802368 -3.455751
v 0.130679 -0.041567 -0.015000
vn -2.409850 -1.844205 -3.665192
v 0.003870 0.002797 -0.015000
vn -1.164889 -2.802053 -3.665191
v 0.001819 0.004375 -0.015000
vn 0.214483 3.096147 -2.830100
v 0.001143 0.017715 -0.015000
vn -0.744744 3.012887 -2.830100
v -0.004420 0.017232 -0.015000
vn -3.022549 -0.704506 -2.830100
v -0.017631 -0.004328 -0.015000
vn -3.093012 0.255746 -2.830101
v -0.018039 0.001242 -0.015000
vn -2.865787 1.191384 -2.830100
v -0.016722 0.006668 -0.015000
vn -2.132995 2.253533 -3.455751
v 0.126033 -0.044750 -0.015000
vn -2.724980 1.484102 -3.455752
v 0.122599 -0.049214 -0.015000
vn -3.050224 0.569396 -3.455751
v 0.120713 -0.054520 -0.015000
vn -3.076889 -0.401040 -3.455750
v 0.120558 -0.060149 -0.015000
vn 1.927471 2.439506 -2.853572
v 0.150806 -0.042130 -0.015000
vn 2.541032 1.791501 -2.853566
v 0.154753 -0.046299 -0.015000
vn 2.802368 1.332222 -3.455751
v 0.154664 -0.050095 -0.015000
vn 2.945252 0.995899 -2.853569
v 0.157353 -0.051417 -0.015000
vn 3.076889 0.401040 -3.455753
v 0.156256 -0.055497 -0.015000
vn 3.106822 0.118257 -2.853572
v 0.158393 -0.057062 -0.015000
vn 3.050224 -0.569398 -3.455750
v 0.156101 -0.061126 -0.015000
vn 3.012435 -0.769129 -2.853567
v 0.157785 -0.062771 -0.015000
vn 2.724983 -1.484098 -3.455752
v 0.154215 -0.066432 -0.015000
vn 2.669865 -1.593157 -2.853568
v 0.155582 -0.068071 -0.015000
vn 2.132996 -2.253531 -3.455756
v 0.150781 -0.070896 -0.015000
vn 2.107340 -2.285924 -2.853573
v 0.151963 -0.072528 -0.015000
vn 1.332219 -2.802370 -3.455749
v 0.146135 -0.074080 -0.015000
vn 1.371202 -2.790364 -2.853568
v 0.147228 -0.075773 -0.015000
vn 0.401041 -3.076889 -3.455752
v 0.140733 -0.075672 -0.015000
vn 0.522087 -3.064922 -2.853567
v 0.141765 -0.077539 -0.015000
vn -0.569397 -3.050224 -3.455752
v 0.135104 -0.075517 -0.015000
vn -0.370035 -3.086973 -2.853571
v 0.136027 -0.077681 -0.015000
vn -1.484102 -2.724981 -3.455753
v 0.129798 -0.073631 -0.015000
vn -2.253530 -2.132998 -3.455751
v 0.125334 -0.070197 -0.015000
vn -2.802367 -1.332222 -3.455753
v 0.122150 -0.065551 -0.015000
vn -2.975206 0.801316 -2.748889
v 0.149029 -0.060684 -0.015000
vn -2.442077 1.878889 -2.748892
v 0.147125 -0.064531 -0.015000
vn -2.112398 2.231757 -3.560474
v 0.145281 -0.065086 -0.015000
vn -1.537163 2.670411 -2.748894
v 0.143895 -0.067356 -0.015000
vn -1.022026 2.898004 -3.560475
v 0.141733 -0.067254 -0.015000
vn -0.398237 3.055386 -2.748897
v 0.139829 -0.068731 -0.015000
vn 0.245056 3.063156 -3.560467
v 0.137610 -0.067791 -0.015000
vn 0.801319 2.975206 -2.748891
v 0.135546 -0.068445 -0.015000
vn 1.469763 2.698659 -3.560473
v 0.133624 -0.066605 -0.015000
vn 1.878885 2.442081 -2.748896
v 0.131699 -0.066541 -0.015000
vn 2.440341 1.867541 -3.560471
v 0.130466 -0.063900 -0.015000
vn 2.670408 1.537165 -2.748888
v 0.128874 -0.063311 -0.015000
vn 2.988959 0.713503 -3.560475
v 0.128680 -0.060145 -0.015000
vn 3.055387 0.398238 -2.748901
v 0.127499 -0.059245 -0.015000
vn 3.075842 -0.408989 -3.455751
v 0.128577 -0.055988 -0.015000
vn 3.054078 -0.611597 -2.879784
v 0.127785 -0.054962 -0.015000
vn 2.885009 -1.199374 -3.351028
v 0.129173 -0.053984 -0.015000
vn 2.845635 -1.294535 -2.933035
v 0.128250 -0.053600 -0.015000
vn 2.459271 -1.892105 -3.455752
v 0.130173 -0.052148 -0.015000
vn 2.393507 -1.969479 -2.814348
v 0.129689 -0.051115 -0.015000
vn 1.602224 -2.622182 -3.560475
v 0.133193 -0.049290 -0.015000
vn 1.537169 -2.670407 -2.748891
v 0.132919 -0.048290 -0.015000
vn 0.397164 -3.047168 -3.560471
v 0.137115 -0.047907 -0.015000
vn 0.398236 -3.055385 -2.748895
v 0.136985 -0.046915 -0.015000
vn -0.876566 -2.945267 -3.560472
v 0.141260 -0.048239 -0.015000
vn -0.801322 -2.975206 -2.748893
v 0.141268 -0.047202 -0.015000
vn -1.998731 -2.334105 -3.560471
v 0.144911 -0.050227 -0.015000
vn -1.878885 -2.442081 -2.748896
v 0.145115 -0.049105 -0.015000
vn -2.775296 -1.319356 -3.560471
v 0.147438 -0.053530 -0.015000
vn -2.670408 -1.537166 -2.748888
v 0.147940 -0.052335 -0.015000
vn -3.071988 -0.076470 -3.560478
v 0.148404 -0.057574 -0.015000
vn -3.055386 -0.398238 -2.748901
v 0.149315 -0.056401 -0.015000
vn -2.837508 1.179631 -3.560463
v 0.147641 -0.061662 -0.015000
vn -0.838467 -1.328297 2.985846
v -0.007231 -0.016769 -0.000000
vn 0.000000 0.000000 2.997580
v 0.130484 -0.076187 -0.000000
vn -1.844205 2.409850 3.665190
v 0.002938 -0.004212 -0.000000
vn 2.409850 1.844205 3.665191
v -0.004071 -0.003280 -0.000000
vn 3.009094 0.392204 3.665192
v -0.005059 -0.000888 -0.000000
vn -3.022549 -0.704506 2.830100
v -0.017631 -0.004328 -0.000000
vn 0.000000 0.000000 3.560469
v 0.133624 -0.066605 -0.000000
vn 0.000000 0.000000 3.560471
v 0.130466 -0.063900 -0.000000
vn -2.802053 1.164889 3.665199
v 0.004516 -0.002161 -0.000000
vn 0.000000 0.000000 3.560475
v 0.128680 -0.060145 -0.000000
vn -3.093012 0.255746 2.830101
v -0.018039 0.001242 -0.000000
vn 2.802053 -1.164889 3.665192
v -0.004718 0.001678 -0.000000
vn -2.865787 1.191384 2.830100
v -0.016722 0.006668 -0.000000
vn 0.000000 0.000000 3.560474
v 0.145281 -0.065086 -0.000000
vn 0.000000 0.000000 2.853568
v 0.155582 -0.068071 -0.000000
vn 0.000000 0.000000 3.560464
v 0.147641 -0.061662 -0.000000
vn 0.000000 0.000000 2.853567
v 0.157785 -0.062771 -0.000000
vn 0.000000 0.000000 3.560477
v 0.148404 -0.057574 -0.000000
vn 0.000000 0.000000 2.853572
v 0.158393 -0.057062 -0.000000
vn 0.000000 0.000000 3.560470
v 0.147438 -0.053530 -0.000000
vn 0.000000 0.000000 3.560468
v 0.137610 -0.067791 -0.000000
vn 0.000000 0.000000 2.853567
v 0.141765 -0.077539 -0.000000
vn 0.000000 0.000000 3.560475
v 0.141733 -0.067254 -0.000000
vn 0.000000 0.000000 2.853568
v 0.147228 -0.075773 -0.000000
vn 0.000000 0.000000 2.853573
v 0.151963 -0.072528 -0.000000
vn -0.392203 3.009094 3.665192
v 0.000546 -0.005200 -0.000000
vn 1.164889 2.802053 3.665191
v -0.002020 -0.004859 -0.000000
vn -2.043681 -2.335701 2.830100
v -0.011954 -0.013788 -0.000000
vn -2.661178 -1.596953 2.830100
v -0.015535 -0.009504 -0.000000
vn -2.362741 2.012357 2.830100
v -0.013804 0.011430 -0.000000
vn 1.844205 -2.409850 3.665192
v -0.003139 0.003729 -0.000000
vn -1.632293 2.639649 2.830100
v -0.009568 0.015068 -0.000000
vn -0.744744 3.012887 2.830100
v -0.004420 0.017232 -0.000000
vn 0.392203 -3.009094 3.665192
v -0.000747 0.004716 -0.000000
vn 0.214483 3.096147 2.830100
v 0.001143 0.017715 -0.000000
vn -1.164889 -2.802053 3.665191
v 0.001819 0.004375 -0.000000
vn 0.350317 1.531235 2.985847
v 0.006587 0.016470 -0.000000
vn -2.409850 -1.844205 3.665191
v 0.003870 0.002797 -0.000000
vn 0.000000 0.000000 2.997582
v 0.145838 -0.039255 -0.000000
vn -3.009094 -0.392203 3.665190
v 0.004857 0.000405 -0.000000
vn 0.000000 0.000000 3.560475
v 0.133193 -0.049290 -0.000000
vn 0.000000 0.000000 2.853571
v 0.136027 -0.077681 -0.000000
vn 0.000000 0.000000 3.560470
v 0.137115 -0.047907 -0.000000
vn 0.000000 0.000000 3.560472
v 0.141260 -0.048239 -0.000000
vn 0.000000 0.000000 2.853571
v 0.150806 -0.042130 -0.000000
vn 0.000000 0.000000 3.560471
v 0.144911 -0.050227 -0.000000
vn 0.000000 0.000000 2.853566
v 0.154753 -0.046299 -0.000000
vn 0.000000 0.000000 2.853569
v 0.157353 -0.051417 -0.000000
vn 0.000000 0.000000 3.455751
v 0.128577 -0.055988 -0.000000
vn 0.000000 0.000000 3.351029
v 0.129173 -0.053984 -0.000000
vn 0.000000 0.000000 3.455753
v 0.130173 -0.052148 -0.000000
vn 0.583598 1.458361 0.000000
v 0.145838 -0.039255 0.000000
vn 0.583598 1.458360 0.000000
v 0.006587 0.016470 0.000000
vn 0.786854 1.359508 0.000000
v 0.145838 -0.039255 -0.000000
vn 1.927470 2.439505 0.000000
v 0.150806 -0.042130 -0.000000
vn 2.541033 1.791501 0.000000
v 0.154753 -0.046299 -0.000000
vn 2.945252 0.995899 0.000000
v 0.157353 -0.051417 -0.000000
vn 3.106822 0.118257 0.000000
v 0.158393 -0.057062 -0.000000
vn 3.012435 -0.769129 0.000000
v 0.157785 -0.062771 -0.000000
vn 2.669865 -1.593157 0.000000
v 0.155582 -0.068071 -0.000000
vn 2.107340 -2.285924 0.000000
v 0.151963 -0.072528 -0.000000
vn 1.371201 -2.790364 0.000000
v 0.147228 -0.075773 -0.000000
vn 0.522087 -3.064922 0.000000
v 0.141765 -0.077539 -0.000000
vn -0.370035 -3.086973 0.000000
v 0.136027 -0.077681 -0.000000
vn -0.408846 -1.516656 0.000000
v 0.130484 -0.076187 -0.000000
vn -0.622277 -1.442282 0.000000
v -0.007231 -0.016769 -0.000000
vn -0.622276 -1.442281 0.000000
v 0.130484 -0.076187 -0.000000
vn -2.837508 1.179631 0.000000
v 0.147641 -0.061662 -0.000000
vn -3.071988 -0.076470 0.000000
v 0.148404 -0.057574 -0.000000
vn -2.775297 -1.319356 0.000000
v 0.147438 -0.053530 -0.000000
vn -1.998731 -2.334105 0.000000
v 0.144911 -0.050227 -0.000000
vn -0.876566 -2.945267 0.000000
v 0.141260 -0.048239 -0.000000
vn 0.397164 -3.047168 0.000000
v 0.137115 -0.047907 -0.000000
vn 1.602224 -2.622182 0.000000
v 0.133193 -0.049290 -0.000000
vn 2.459271 -1.892105 0.000000
v 0.130173 -0.052148 -0.000000
vn 2.885009 -1.199374 0.000000
v 0.129173 -0.053984 -0.000000
vn 3.075843 -0.408989 0.000000
v 0.128577 -0.055988 -0.000000
vn 2.988959 0.713503 0.000000
v 0.128680 -0.060145 -0.000000
vn 2.440341 1.867541 0.000000
v 0.130466 -0.063900 -0.000000
vn 1.469763 2.698659 0.000000
v 0.133624 -0.066605 -0.000000
vn 0.245056 3.063156 0.000000
v 0.137610 -0.067791 -0.000000
vn -1.022026 2.898004 0.000000
v 0.141733 -0.067254 -0.000000
vn -2.112398 2.231757 0.000000
v 0.145281 -0.065086 -0.000000
vn 0.801319 2.975206 -3.534294
v 0.135546 -0.068445 -0.023000
vn -1.484102 -2.724981 -2.827433
v 0.129798 -0.073631 -0.023000
vn 1.878885 2.442082 -3.534290
v 0.131699 -0.066541 -0.023000
vn -2.253530 -2.132998 -2.827434
v 0.125334 -0.070197 -0.023000
vn 2.670408 1.537165 -3.534297
v 0.128874 -0.063311 -0.023000
vn -2.802367 -1.332222 -2.827432
v 0.122150 -0.065551 -0.023000
vn 3.055387 0.398238 -3.534284
v 0.127499 -0.059245 -0.023000
vn -3.076889 -0.401040 -2.827435
v 0.120558 -0.060149 -0.023000
vn 2.985174 -0.780339 -3.501574
v 0.127785 -0.054962 -0.023000
vn -3.050224 0.569396 -2.827434
v 0.120713 -0.054520 -0.023000
vn 2.431808 -1.898956 -3.505490
v 0.129689 -0.051115 -0.023000
vn -2.724980 1.484102 -2.827430
v 0.122599 -0.049214 -0.023000
vn -2.132995 2.253533 -2.827435
v 0.126033 -0.044750 -0.023000
vn 1.537169 -2.670407 -3.534295
v 0.132919 -0.048290 -0.023000
vn -1.332222 2.802368 -2.827434
v 0.130679 -0.041567 -0.023000
vn 0.398236 -3.055385 -3.534291
v 0.136985 -0.046915 -0.023000
vn -0.401041 3.076889 -2.827433
v 0.136081 -0.039974 -0.023000
vn -0.801322 -2.975206 -3.534292
v 0.141268 -0.047202 -0.023000
vn -2.442077 1.878889 -3.534293
v 0.147125 -0.064531 -0.023000
vn 2.132996 -2.253531 -2.827429
v 0.150781 -0.070896 -0.023000
vn -1.537163 2.670411 -3.534292
v 0.143895 -0.067356 -0.023000
vn 1.332219 -2.802370 -2.827436
v 0.146135 -0.074080 -0.023000
vn -0.398237 3.055386 -3.534288
v 0.139829 -0.068731 -0.023000
vn 0.401041 -3.076889 -2.827434
v 0.140733 -0.075672 -0.023000
vn -0.569397 -3.050224 -2.827433
v 0.135104 -0.075517 -0.023000
vn 0.569399 3.050223 -2.827433
v 0.141710 -0.040129 -0.023000
vn 1.484102 2.724981 -2.827434
v 0.147016 -0.042015 -0.023000
vn -1.878885 -2.442082 -3.534290
v 0.145115 -0.049105 -0.023000
vn 2.253531 2.132997 -2.827433
v 0.151480 -0.045450 -0.023000
vn -2.670408 -1.537166 -3.534297
v 0.147940 -0.052335 -0.023000
vn 2.802368 1.332222 -2.827434
v 0.154664 -0.050095 -0.023000
vn -3.055387 -0.398238 -3.534285
v 0.149315 -0.056401 -0.023000
vn 3.076889 0.401040 -2.827433
v 0.156256 -0.055497 -0.023000
vn -2.975206 0.801316 -3.534296
v 0.149029 -0.060684 -0.023000
vn 3.050224 -0.569398 -2.827435
v 0.156101 -0.061126 -0.023000
vn 2.724983 -1.484098 -2.827434
v 0.154215 -0.066432 -0.023000
# 207 vertices, 0 vertices normals

f 1//1 2//2 3//3
f 4//4 5//5 6//6
f 6//6 5//5 7//7
f 6//6 7//7 8//8
f 9//9 10//10 11//11
f 11//11 10//10 12//12
f 11//11 12//12 13//13
f 13//13 12//12 14//14
f 13//13 14//14 15//15
f 15//15 14//14 16//16
f 15//15 16//16 17//17
f 2//2 1//1 18//18
f 19//19 1//1 20//20
f 20//20 1//1 3//3
f 20//20 3//3 21//21
f 21//21 3//3 22//22
f 21//21 22//22 23//23
f 20//20 24//24 19//19
f 19//19 24//24 25//25
f 19//19 25//25 26//26
f 26//26 25//25 8//8
f 26//26 8//8 27//27
f 27//27 8//8 7//7
f 16//16 28//28 17//17
f 17//17 28//28 29//29
f 17//17 29//29 4//4
f 4//4 29//29 30//30
f 4//4 30//30 5//5
f 23//23 31//31 21//21
f 21//21 31//31 32//32
f 21//21 32//32 9//9
f 9//9 32//32 33//33
f 9//9 33//33 34//34
f 1//1 35//35 18//18
f 18//18 35//35 36//36
f 18//18 36//36 37//37
f 37//37 36//36 38//38
f 37//37 38//38 39//39
f 39//39 38//38 40//40
f 39//39 40//40 41//41
f 41//41 40//40 42//42
f 41//41 42//42 43//43
f 43//43 42//42 44//44
f 43//43 44//44 45//45
f 45//45 44//44 46//46
f 45//45 46//46 47//47
f 47//47 46//46 48//48
f 47//47 48//48 49//49
f 49//49 48//48 50//50
f 49//49 50//50 51//51
f 51//51 50//50 52//52
f 51//51 52//52 53//53
f 53//53 52//52 10//10
f 53//53 10//10 54//54
f 54//54 10//10 9//9
f 54//54 9//9 55//55
f 55//55 9//9 34//34
f 56//56 57//57 58//58
f 58//58 57//57 59//59
f 58//58 59//59 60//60
f 60//60 59//59 61//61
f 60//60 61//61 62//62
f 62//62 61//61 63//63
f 62//62 63//63 64//64
f 64//64 63//63 65//65
f 64//64 65//65 66//66
f 66//66 65//65 67//67
f 66//66 67//67 68//68
f 68//68 67//67 69//69
f 68//68 69//69 70//70
f 70//70 69//69 71//71
f 70//70 71//71 72//72
f 72//72 71//71 73//73
f 72//72 73//73 74//74
f 74//74 73//73 75//75
f 74//74 75//75 76//76
f 76//76 75//75 77//77
f 76//76 77//77 78//78
f 78//78 77//77 79//79
f 78//78 79//79 80//80
f 80//80 79//79 81//81
f 80//80 81//81 82//82
f 82//82 81//81 83//83
f 82//82 83//83 84//84
f 84//84 83//83 85//85
f 84//84 85//85 86//86
f 86//86 85//85 87//87
f 86//86 87//87 88//88
f 88//88 87//87 56//56
f 88//88 56//56 58//58
f 89//89 90//90 91//91
f 92//92 93//93 94//94
f 95//95 96//96 97//97
f 97//97 96//96 98//98
f 94//94 93//93 99//99
f 99//99 93//93 100//100
f 99//99 100//100 101//101
f 102//102 103//103 104//104
f 104//104 103//103 105//105
f 104//104 105//105 106//106
f 106//106 105//105 107//107
f 106//106 107//107 108//108
f 109//109 110//110 111//111
f 111//111 110//110 112//112
f 111//111 112//112 102//102
f 102//102 112//112 113//113
f 102//102 113//113 103//103
f 91//91 114//114 89//89
f 89//89 114//114 115//115
f 89//89 115//115 116//116
f 116//116 115//115 92//92
f 116//116 92//92 117//117
f 117//117 92//92 94//94
f 101//101 100//100 118//118
f 118//118 100//100 119//119
f 118//118 119//119 120//120
f 120//120 119//119 121//121
f 121//121 119//119 122//122
f 121//121 122//122 123//123
f 123//123 122//122 124//124
f 123//123 124//124 125//125
f 125//125 124//124 126//126
f 125//125 126//126 127//127
f 127//127 126//126 128//128
f 127//127 128//128 129//129
f 97//97 91//91 95//95
f 95//95 91//91 90//90
f 95//95 90//90 109//109
f 109//109 90//90 130//130
f 109//109 130//130 110//110
f 129//129 131//131 127//127
f 127//127 131//131 132//132
f 127//127 132//132 133//133
f 133//133 132//132 134//134
f 133//133 134//134 135//135
f 135//135 134//134 108//108
f 135//135 108//108 136//136
f 136//136 108//108 107//107
f 98//98 137//137 97//97
f 97//97 137//137 138//138
f 97//97 138//138 128//128
f 128//128 138//138 139//139
f 128//128 139//139 129//129
f 12//12 89//89 116//116
f 12//12 116//116 14//14
f 14//14 116//116 117//117
f 14//14 117//117 16//16
f 16//16 117//117 94//94
f 16//16 94//94 28//28
f 28//28 94//94 99//99
f 28//28 99//99 29//29
f 29//29 99//99 101//101
f 29//29 101//101 30//30
f 30//30 101//101 118//118
f 30//30 118//118 5//5
f 5//5 118//118 120//120
f 5//5 120//120 7//7
f 7//7 120//120 121//121
f 7//7 121//121 27//27
f 27//27 121//121 123//123
f 27//27 123//123 26//26
f 26//26 123//123 125//125
f 26//26 125//125 19//19
f 1//1 19//19 140//140
f 140//140 19//19 141//141
f 1//1 142//142 143//143
f 1//1 143//143 35//35
f 35//35 143//143 144//144
f 35//35 144//144 36//36
f 36//36 144//144 145//145
f 36//36 145//145 38//38
f 38//38 145//145 146//146
f 38//38 146//146 40//40
f 40//40 146//146 147//147
f 40//40 147//147 42//42
f 42//42 147//147 148//148
f 42//42 148//148 44//44
f 44//44 148//148 149//149
f 44//44 149//149 46//46
f 46//46 149//149 150//150
f 46//46 150//150 48//48
f 48//48 150//150 151//151
f 48//48 151//151 50//50
f 50//50 151//151 152//152
f 50//50 152//152 52//52
f 52//52 152//152 153//153
f 52//52 153//153 10//10
f 12//12 10//10 154//154
f 154//154 10//10 155//155
f 21//21 97//97 20//20
f 20//20 97//97 128//128
f 20//20 128//128 24//24
f 24//24 128//128 126//126
f 24//24 126//126 25//25
f 25//25 126//126 124//124
f 25//25 124//124 8//8
f 8//8 124//124 122//122
f 8//8 122//122 6//6
f 6//6 122//122 119//119
f 6//6 119//119 4//4
f 4//4 119//119 100//100
f 4//4 100//100 17//17
f 17//17 100//100 93//93
f 17//17 93//93 15//15
f 15//15 93//93 92//92
f 15//15 92//92 13//13
f 13//13 92//92 115//115
f 13//13 115//115 11//11
f 11//11 115//115 114//114
f 11//11 114//114 9//9
f 9//9 114//114 91//91
f 9//9 91//91 21//21
f 21//21 91//91 97//97
f 88//88 156//156 86//86
f 86//86 156//156 157//157
f 86//86 157//157 84//84
f 84//84 157//157 158//158
f 84//84 158//158 82//82
f 82//82 158//158 159//159
f 82//82 159//159 80//80
f 80//80 159//159 160//160
f 80//80 160//160 78//78
f 78//78 160//160 161//161
f 78//78 161//161 76//76
f 76//76 161//161 162//162
f 76//76 162//162 74//74
f 74//74 162//162 163//163
f 74//74 163//163 72//72
f 72//72 163//163 164//164
f 72//72 164//164 70//70
f 70//70 164//164 165//165
f 70//70 165//165 68//68
f 68//68 165//165 166//166
f 68//68 166//166 66//66
f 66//66 166//166 167//167
f 66//66 167//167 64//64
f 64//64 167//167 168//168
f 64//64 168//168 62//62
f 62//62 168//168 169//169
f 62//62 169//169 60//60
f 60//60 169//169 170//170
f 60//60 170//170 58//58
f 58//58 170//170 171//171
f 58//58 171//171 88//88
f 88//88 171//171 156//156
f 172//172 173//173 174//174
f 174//174 173//173 175//175
f 174//174 175//175 176//176
f 176//176 175//175 177//177
f 176//176 177//177 178//178
f 178//178 177//177 179//179
f 178//178 179//179 180//180
f 180//180 179//179 181//181
f 180//180 181//181 182//182
f 181//181 183//183 182//182
f 182//182 183//183 184//184
f 182//182 184//184 185//185
f 185//185 184//184 186//186
f 185//185 186//186 187//187
f 187//187 186//186 188//188
f 187//187 188//188 189//189
f 190//190 191//191 192//192
f 192//192 191//191 193//193
f 192//192 193//193 194//194
f 194//194 193//193 195//195
f 194//194 195//195 172//172
f 172//172 195//195 196//196
f 172//172 196//196 173//173
f 188//188 197//197 189//189
f 189//189 197//197 198//198
f 189//189 198//198 199//199
f 199//199 198//198 200//200
f 199//199 200//200 201//201
f 201//201 200//200 202//202
f 201//201 202//202 203//203
f 203//203 202//202 204//204
f 203//203 204//204 205//205
f 205//205 204//204 206//206
f 205//205 206//206 190//190
f 190//190 206//206 207//207
f 190//190 207//207 191//191
f 49//49 193//193 47//47
f 47//47 193//193 191//191
f 47//47 191//191 45//45
f 45//45 191//191 207//207
f 45//45 207//207 43//43
f 43//43 207//207 206//206
f 43//43 206//206 41//41
f 41//41 206//206 204//204
f 41//41 204//204 39//39
f 39//39 204//204 202//202
f 39//39 202//202 37//37
f 37//37 202//202 200//200
f 37//37 200//200 18//18
f 18//18 200//200 198//198
f 18//18 198//198 2//2
f 2//2 198//198 197//197
f 2//2 197//197 3//3
f 3//3 197//197 188//188
f 3//3 188//188 22//22
f 22//22 188//188 186//186
f 22//22 186//186 23//23
f 23//23 186//186 184//184
f 23//23 184//184 31//31
f 31//31 184//184 183//183
f 31//31 183//183 32//32
f 32//32 183//183 181//181
f 32//32 181//181 33//33
f 33//33 181//181 179//179
f 33//33 179//179 34//34
f 34//34 179//179 177//177
f 34//34 177//177 55//55
f 55//55 177//177 175//175
f 55//55 175//175 54//54
f 54//54 175//175 173//173
f 54//54 173//173 53//53
f 53//53 173//173 196//196
f 53//53 196//196 51//51
f 51//51 196//196 195//195
f 51//51 195//195 49//49
f 49//49 195//195 193//193
f 77//77 75//75 182//182
f 182//182 75//75 73//73
f 182//182 73//73 180//180
f 180//180 73//73 71//71
f 180//180 71//71 178//178
f 178//178 71//71 69//69
f 178//178 69//69 176//176
f 176//176 69//69 67//67
f 176//176 67//67 174//174
f 174//174 67//67 65//65
f 174//174 65//65 172//172
f 172//172 65//65 63//63
f 172//172 63//63 194//194
f 194//194 63//63 61//61
f 194//194 61//61 192//192
f 192//192 61//61 59//59
f 192//192 59//59 190//190
f 190//190 59//59 57//57
f 190//190 57//57 205//205
f 205//205 57//57 56//56
f 205//205 56//56 203//203
f 203//203 56//56 87//87
f 203//203 87//87 201//201
f 201//201 87//87 85//85
f 201//201 85//85 199//199
f 199//199 85//85 83//83
f 199//199 83//83 189//189
f 189//189 83//83 81//81
f 189//189 81//81 187//187
f 187//187 81//81 79//79
f 187//187 79//79 185//185
f 185//185 79//79 77//77
f 185//185 77//77 182//182
# 354 faces, 0 coords texture

# End of File
